<svg xmlns="http://www.w3.org/2000/svg" xmlns:xlink="http://www.w3.org/1999/xlink" width="74" height="76" viewBox="0 0 74 76">
  <defs>
    <clipPath id="clip-estrelinha-m">
      <rect width="74" height="76"/>
    </clipPath>
  </defs>
  <g id="estrelinha-m" clip-path="url(#clip-estrelinha-m)">
    <rect width="74" height="76" fill="#fff"/>
    <g id="Grupo_352" data-name="Grupo 352" transform="translate(-6220.455 -3001.964)">
      <path id="Polígono_18" data-name="Polígono 18" d="M36,0l7.2,30.4L72,38,43.2,45.6,36,76,28.8,45.6,0,38l28.8-7.6Z" transform="translate(6220 3002)" fill="#2a2929"/>
      <path id="Polígono_17" data-name="Polígono 17" d="M36,0l7.2,30L72,37.5,43.2,45,36,75,28.8,45,0,37.5,28.8,30Z" transform="translate(6222 3002)" fill="#d90f0f"/>
      <path id="Polígono_17_-_Contorno" data-name="Polígono 17 - Contorno" d="M36.427,3.45,29.82,30.684l-26.6,6.852,26.6,6.852,6.607,27.234,6.607-27.234,26.6-6.852-26.6-6.852L36.427,3.45m0-3.45,7.285,30.028,29.142,7.507L43.713,45.043,36.427,75.071,29.142,45.043,0,37.536l29.142-7.507Z" transform="translate(6221.601 3001.964)" fill="#2a2929"/>
    </g>
  </g>
</svg>
