<svg xmlns="http://www.w3.org/2000/svg" xmlns:xlink="http://www.w3.org/1999/xlink" width="118" height="65" viewBox="0 0 118 65">
  <defs>
    <clipPath id="clip-olho">
      <rect width="118" height="65"/>
    </clipPath>
  </defs>
  <g id="olho" clip-path="url(#clip-olho)">
    <g id="Grupo_340" data-name="Grupo 340" transform="translate(-3134.831 -8790.233)">
      <ellipse id="Elipse_18" data-name="Elipse 18" cx="59" cy="32.5" rx="59" ry="32.5" transform="translate(3134.831 8790.233)" fill="#fff"/>
      <path id="Elipse_18_-_Contorno" data-name="Elipse 18 - Contorno" d="M59,2A99.386,99.386,0,0,0,36.488,4.5a71.418,71.418,0,0,0-18.243,6.769,38.091,38.091,0,0,0-12.023,9.8A18.628,18.628,0,0,0,2,32.5,18.628,18.628,0,0,0,6.223,43.932a38.091,38.091,0,0,0,12.023,9.8A71.418,71.418,0,0,0,36.488,60.5,99.386,99.386,0,0,0,59,63a99.386,99.386,0,0,0,22.512-2.5,71.418,71.418,0,0,0,18.243-6.769,38.091,38.091,0,0,0,12.023-9.8A18.628,18.628,0,0,0,116,32.5a18.628,18.628,0,0,0-4.223-11.432,38.091,38.091,0,0,0-12.023-9.8A71.418,71.418,0,0,0,81.512,4.5,99.386,99.386,0,0,0,59,2m0-2c32.585,0,59,14.551,59,32.5S91.585,65,59,65,0,50.449,0,32.5,26.415,0,59,0Z" transform="translate(3134.831 8790.233)" fill="#2a2929"/>
      <ellipse id="Elipse_19" data-name="Elipse 19" cx="23.9" cy="23.612" rx="23.9" ry="23.612" transform="translate(3169.931 8799.121)" fill="#2a2929"/>
    </g>
  </g>
</svg>
